<svg xmlns="http://www.w3.org/2000/svg" xmlns:xlink="http://www.w3.org/1999/xlink" width="604" zoomAndPan="magnify" viewBox="0 0 452.88 453.749989" height="604" preserveAspectRatio="xMidYMid meet" version="1.0"><defs><clipPath id="f239c34b30"><path d="M 0.0664062 0 L 452.695312 0 L 452.695312 452.75 L 0.0664062 452.75 Z M 0.0664062 0 " clip-rule="nonzero"/></clipPath></defs><g clip-path="url(#f239c34b30)"><path fill="#318a8a" d="M 452.753906 226.386719 C 452.753906 230.09375 452.660156 233.792969 452.480469 237.496094 C 452.296875 241.195312 452.027344 244.886719 451.664062 248.574219 C 451.300781 252.261719 450.847656 255.9375 450.300781 259.601562 C 449.757812 263.265625 449.125 266.914062 448.402344 270.550781 C 447.679688 274.183594 446.867188 277.796875 445.96875 281.390625 C 445.066406 284.984375 444.082031 288.550781 443.003906 292.097656 C 441.929688 295.640625 440.769531 299.160156 439.519531 302.648438 C 438.273438 306.136719 436.9375 309.589844 435.519531 313.011719 C 434.105469 316.4375 432.601562 319.820312 431.019531 323.171875 C 429.433594 326.519531 427.769531 329.828125 426.023438 333.09375 C 424.277344 336.363281 422.453125 339.582031 420.546875 342.761719 C 418.644531 345.9375 416.660156 349.066406 414.601562 352.148438 C 412.546875 355.226562 410.414062 358.257812 408.207031 361.230469 C 406 364.207031 403.71875 367.128906 401.371094 369.992188 C 399.019531 372.855469 396.601562 375.660156 394.113281 378.402344 C 391.625 381.148438 389.070312 383.832031 386.453125 386.449219 C 383.832031 389.070312 381.148438 391.625 378.40625 394.113281 C 375.660156 396.597656 372.855469 399.019531 369.992188 401.367188 C 367.128906 403.71875 364.210938 405.996094 361.234375 408.203125 C 358.257812 410.410156 355.230469 412.542969 352.148438 414.601562 C 349.070312 416.660156 345.941406 418.640625 342.761719 420.546875 C 339.585938 422.449219 336.363281 424.277344 333.097656 426.023438 C 329.828125 427.769531 326.519531 429.433594 323.171875 431.015625 C 319.824219 432.601562 316.4375 434.101562 313.015625 435.519531 C 309.59375 436.9375 306.136719 438.269531 302.648438 439.519531 C 299.160156 440.765625 295.644531 441.929688 292.097656 443.003906 C 288.554688 444.078125 284.984375 445.066406 281.390625 445.964844 C 277.796875 446.867188 274.183594 447.679688 270.550781 448.402344 C 266.917969 449.125 263.269531 449.757812 259.605469 450.300781 C 255.9375 450.84375 252.265625 451.296875 248.578125 451.660156 C 244.890625 452.023438 241.195312 452.296875 237.496094 452.476562 C 233.796875 452.660156 230.09375 452.75 226.390625 452.75 C 222.683594 452.75 218.984375 452.660156 215.28125 452.476562 C 211.582031 452.296875 207.890625 452.023438 204.203125 451.660156 C 200.515625 451.296875 196.839844 450.84375 193.175781 450.300781 C 189.511719 449.757812 185.863281 449.125 182.226562 448.402344 C 178.59375 447.679688 174.980469 446.867188 171.386719 445.964844 C 167.792969 445.066406 164.226562 444.078125 160.679688 443.003906 C 157.136719 441.929688 153.617188 440.765625 150.128906 439.519531 C 146.640625 438.269531 143.1875 436.9375 139.765625 435.519531 C 136.339844 434.101562 132.957031 432.601562 129.605469 431.015625 C 126.257812 429.433594 122.949219 427.769531 119.683594 426.023438 C 116.414062 424.277344 113.195312 422.449219 110.015625 420.546875 C 106.839844 418.640625 103.710938 416.660156 100.628906 414.601562 C 97.550781 412.542969 94.519531 410.410156 91.546875 408.203125 C 88.570312 405.996094 85.648438 403.71875 82.785156 401.367188 C 79.921875 399.019531 77.117188 396.597656 74.375 394.113281 C 71.628906 391.625 68.945312 389.070312 66.328125 386.449219 C 63.707031 383.832031 61.152344 381.148438 58.664062 378.402344 C 56.179688 375.660156 53.757812 372.855469 51.410156 369.992188 C 49.058594 367.128906 46.78125 364.207031 44.574219 361.230469 C 42.367188 358.257812 40.234375 355.226562 38.175781 352.148438 C 36.117188 349.066406 34.136719 345.9375 32.230469 342.761719 C 30.328125 339.582031 28.5 336.363281 26.753906 333.09375 C 25.007812 329.828125 23.34375 326.519531 21.761719 323.171875 C 20.175781 319.820312 18.675781 316.4375 17.257812 313.011719 C 15.839844 309.589844 14.507812 306.136719 13.257812 302.648438 C 12.011719 299.160156 10.847656 295.640625 9.773438 292.097656 C 8.699219 288.550781 7.710938 284.984375 6.8125 281.390625 C 5.910156 277.796875 5.097656 274.183594 4.375 270.550781 C 3.652344 266.914062 3.019531 263.265625 2.476562 259.601562 C 1.933594 255.9375 1.480469 252.261719 1.117188 248.574219 C 0.753906 244.886719 0.480469 241.195312 0.300781 237.496094 C 0.117188 233.792969 0.0273438 230.09375 0.0273438 226.386719 C 0.0273438 222.683594 0.117188 218.980469 0.300781 215.28125 C 0.480469 211.582031 0.753906 207.886719 1.117188 204.199219 C 1.480469 200.511719 1.933594 196.839844 2.476562 193.171875 C 3.019531 189.507812 3.652344 185.859375 4.375 182.226562 C 5.097656 178.59375 5.910156 174.980469 6.8125 171.386719 C 7.710938 167.792969 8.699219 164.222656 9.773438 160.679688 C 10.847656 157.132812 12.011719 153.617188 13.257812 150.128906 C 14.507812 146.640625 15.839844 143.183594 17.257812 139.761719 C 18.675781 136.339844 20.175781 132.953125 21.761719 129.605469 C 23.34375 126.257812 25.007812 122.949219 26.753906 119.679688 C 28.5 116.414062 30.328125 113.191406 32.230469 110.015625 C 34.136719 106.835938 36.117188 103.707031 38.175781 100.628906 C 40.234375 97.546875 42.367188 94.519531 44.574219 91.542969 C 46.78125 88.566406 49.058594 85.648438 51.410156 82.785156 C 53.757812 79.921875 56.179688 77.117188 58.664062 74.371094 C 61.152344 71.628906 63.707031 68.945312 66.328125 66.324219 C 68.945312 63.707031 71.628906 61.152344 74.375 58.664062 C 77.117188 56.175781 79.921875 53.757812 82.785156 51.40625 C 85.648438 49.058594 88.570312 46.777344 91.546875 44.570312 C 94.519531 42.363281 97.550781 40.230469 100.628906 38.175781 C 103.710938 36.117188 106.839844 34.132812 110.015625 32.230469 C 113.195312 30.324219 116.414062 28.5 119.683594 26.753906 C 122.949219 25.007812 126.257812 23.34375 129.605469 21.757812 C 132.957031 20.175781 136.339844 18.671875 139.765625 17.257812 C 143.1875 15.839844 146.640625 14.503906 150.128906 13.257812 C 153.617188 12.007812 157.136719 10.847656 160.679688 9.773438 C 164.226562 8.695312 167.792969 7.710938 171.386719 6.808594 C 174.980469 5.910156 178.59375 5.097656 182.226562 4.375 C 185.863281 3.652344 189.511719 3.019531 193.175781 2.476562 C 196.839844 1.933594 200.515625 1.476562 204.203125 1.113281 C 207.890625 0.753906 211.582031 0.480469 215.28125 0.296875 C 218.984375 0.117188 222.683594 0.0234375 226.390625 0.0234375 C 230.09375 0.0234375 233.796875 0.117188 237.496094 0.296875 C 241.195312 0.480469 244.890625 0.753906 248.578125 1.113281 C 252.265625 1.476562 255.9375 1.933594 259.605469 2.476562 C 263.269531 3.019531 266.917969 3.652344 270.550781 4.375 C 274.183594 5.097656 277.796875 5.910156 281.390625 6.808594 C 284.984375 7.710938 288.554688 8.695312 292.097656 9.773438 C 295.644531 10.847656 299.160156 12.007812 302.648438 13.257812 C 306.136719 14.503906 309.59375 15.839844 313.015625 17.257812 C 316.4375 18.671875 319.824219 20.175781 323.171875 21.757812 C 326.519531 23.34375 329.828125 25.007812 333.097656 26.753906 C 336.363281 28.5 339.585938 30.324219 342.761719 32.230469 C 345.941406 34.132812 349.070312 36.117188 352.148438 38.175781 C 355.230469 40.230469 358.257812 42.363281 361.234375 44.570312 C 364.210938 46.777344 367.128906 49.058594 369.992188 51.40625 C 372.855469 53.757812 375.660156 56.175781 378.40625 58.664062 C 381.148438 61.152344 383.832031 63.707031 386.453125 66.324219 C 389.070312 68.945312 391.625 71.628906 394.113281 74.371094 C 396.601562 77.117188 399.019531 79.921875 401.371094 82.785156 C 403.71875 85.648438 406 88.566406 408.207031 91.542969 C 410.414062 94.519531 412.546875 97.546875 414.601562 100.628906 C 416.660156 103.707031 418.644531 106.835938 420.546875 110.015625 C 422.453125 113.191406 424.277344 116.414062 426.023438 119.679688 C 427.769531 122.949219 429.433594 126.257812 431.019531 129.605469 C 432.601562 132.953125 434.105469 136.339844 435.519531 139.761719 C 436.9375 143.183594 438.273438 146.640625 439.519531 150.128906 C 440.769531 153.617188 441.929688 157.132812 443.003906 160.679688 C 444.082031 164.222656 445.066406 167.792969 445.96875 171.386719 C 446.867188 174.980469 447.679688 178.59375 448.402344 182.226562 C 449.125 185.859375 449.757812 189.507812 450.300781 193.171875 C 450.847656 196.839844 451.300781 200.511719 451.664062 204.199219 C 452.027344 207.886719 452.296875 211.582031 452.480469 215.28125 C 452.660156 218.980469 452.753906 222.683594 452.753906 226.386719 Z M 452.753906 226.386719 " fill-opacity="1" fill-rule="nonzero"/></g><path fill="#ff5757" d="M 424.054688 226.386719 C 424.054688 228.867188 424.003906 231.320312 423.914062 233.777344 C 420.027344 339.519531 333.074219 424.050781 226.402344 424.050781 C 119.726562 424.050781 32.765625 339.519531 28.875 233.777344 C 28.789062 231.320312 28.738281 228.867188 28.738281 226.386719 C 28.738281 117.234375 117.234375 28.734375 226.402344 28.734375 C 335.566406 28.734375 424.054688 117.234375 424.054688 226.386719 Z M 424.054688 226.386719 " fill-opacity="1" fill-rule="nonzero"/><path fill="#ff1616" d="M 423.914062 233.777344 C 420.027344 339.519531 333.074219 424.050781 226.402344 424.050781 C 119.726562 424.050781 32.765625 339.519531 28.875 233.777344 C 32.753906 128.035156 119.703125 43.5 226.402344 43.5 C 333.101562 43.5 420.039062 128.035156 423.914062 233.777344 Z M 423.914062 233.777344 " fill-opacity="1" fill-rule="nonzero"/><path fill="#f5ffc1" d="M 173.296875 303.167969 C 171.09375 303.167969 168.90625 302.324219 167.230469 300.652344 C 163.882812 297.300781 163.882812 291.863281 167.230469 288.515625 L 279.015625 176.734375 C 282.363281 173.382812 287.800781 173.382812 291.148438 176.734375 C 294.496094 180.082031 294.496094 185.519531 291.148438 188.867188 L 179.363281 300.652344 C 177.691406 302.324219 175.488281 303.167969 173.296875 303.167969 Z M 173.296875 303.167969 " fill-opacity="1" fill-rule="nonzero"/><path fill="#f5ffc1" d="M 285.082031 303.167969 C 282.878906 303.167969 280.691406 302.324219 279.015625 300.652344 L 167.230469 188.867188 C 163.882812 185.519531 163.882812 180.082031 167.230469 176.734375 C 170.578125 173.382812 176.015625 173.382812 179.363281 176.734375 L 291.148438 288.515625 C 294.496094 291.863281 294.496094 297.300781 291.148438 300.652344 C 289.476562 302.324219 287.273438 303.167969 285.082031 303.167969 Z M 285.082031 303.167969 " fill-opacity="1" fill-rule="nonzero"/></svg>