<svg xmlns="http://www.w3.org/2000/svg" xmlns:xlink="http://www.w3.org/1999/xlink" width="604" zoomAndPan="magnify" viewBox="0 0 452.88 453.749989" height="604" preserveAspectRatio="xMidYMid meet" version="1.0"><defs><clipPath id="aaceaf6888"><path d="M 0.0664062 0 L 452.695312 0 L 452.695312 452.75 L 0.0664062 452.75 Z M 0.0664062 0 " clip-rule="nonzero"/></clipPath></defs><g clip-path="url(#aaceaf6888)"><path fill="#318a8a" d="M 452.777344 226.386719 C 452.777344 230.09375 452.6875 233.792969 452.503906 237.496094 C 452.324219 241.195312 452.050781 244.886719 451.6875 248.574219 C 451.324219 252.261719 450.871094 255.9375 450.328125 259.601562 C 449.785156 263.265625 449.152344 266.914062 448.429688 270.550781 C 447.707031 274.183594 446.894531 277.796875 445.992188 281.390625 C 445.09375 284.984375 444.105469 288.550781 443.03125 292.097656 C 441.953125 295.640625 440.792969 299.160156 439.546875 302.648438 C 438.296875 306.136719 436.964844 309.589844 435.546875 313.011719 C 434.128906 316.4375 432.628906 319.820312 431.042969 323.171875 C 429.460938 326.519531 427.796875 329.828125 426.050781 333.09375 C 424.300781 336.363281 422.476562 339.582031 420.574219 342.761719 C 418.667969 345.9375 416.6875 349.066406 414.628906 352.148438 C 412.570312 355.226562 410.4375 358.257812 408.230469 361.230469 C 406.023438 364.207031 403.746094 367.128906 401.394531 369.992188 C 399.046875 372.855469 396.625 375.660156 394.136719 378.402344 C 391.652344 381.148438 389.097656 383.832031 386.476562 386.449219 C 383.859375 389.070312 381.175781 391.625 378.429688 394.113281 C 375.6875 396.597656 372.882812 399.019531 370.019531 401.367188 C 367.152344 403.71875 364.234375 405.996094 361.257812 408.203125 C 358.285156 410.410156 355.253906 412.542969 352.175781 414.601562 C 349.09375 416.660156 345.964844 418.640625 342.789062 420.546875 C 339.609375 422.449219 336.386719 424.277344 333.121094 426.023438 C 329.855469 427.769531 326.546875 429.433594 323.199219 431.015625 C 319.847656 432.601562 316.460938 434.101562 313.039062 435.519531 C 309.617188 436.9375 306.160156 438.269531 302.675781 439.519531 C 299.1875 440.765625 295.667969 441.929688 292.125 443.003906 C 288.578125 444.078125 285.011719 445.066406 281.417969 445.964844 C 277.824219 446.867188 274.210938 447.679688 270.574219 448.402344 C 266.941406 449.125 263.292969 449.757812 259.628906 450.300781 C 255.964844 450.84375 252.289062 451.296875 248.601562 451.660156 C 244.914062 452.023438 241.222656 452.296875 237.523438 452.476562 C 233.820312 452.660156 230.121094 452.75 226.414062 452.75 C 222.710938 452.75 219.007812 452.660156 215.308594 452.476562 C 211.609375 452.296875 207.914062 452.023438 204.226562 451.660156 C 200.539062 451.296875 196.863281 450.84375 193.199219 450.300781 C 189.535156 449.757812 185.886719 449.125 182.253906 448.402344 C 178.621094 447.679688 175.007812 446.867188 171.414062 445.964844 C 167.820312 445.066406 164.25 444.078125 160.707031 443.003906 C 157.160156 441.929688 153.644531 440.765625 150.15625 439.519531 C 146.667969 438.269531 143.210938 436.9375 139.789062 435.519531 C 136.367188 434.101562 132.980469 432.601562 129.632812 431.015625 C 126.285156 429.433594 122.976562 427.769531 119.707031 426.023438 C 116.441406 424.277344 113.21875 422.449219 110.042969 420.546875 C 106.863281 418.640625 103.734375 416.660156 100.65625 414.601562 C 97.574219 412.542969 94.546875 410.410156 91.570312 408.203125 C 88.59375 405.996094 85.675781 403.71875 82.8125 401.367188 C 79.949219 399.019531 77.144531 396.597656 74.398438 394.113281 C 71.652344 391.625 68.972656 389.070312 66.351562 386.449219 C 63.734375 383.832031 61.179688 381.148438 58.691406 378.402344 C 56.203125 375.660156 53.785156 372.855469 51.433594 369.992188 C 49.082031 367.128906 46.804688 364.207031 44.597656 361.230469 C 42.390625 358.257812 40.257812 355.226562 38.199219 352.148438 C 36.144531 349.066406 34.160156 345.9375 32.257812 342.761719 C 30.351562 339.582031 28.527344 336.363281 26.78125 333.09375 C 25.035156 329.828125 23.371094 326.519531 21.785156 323.171875 C 20.203125 319.820312 18.699219 316.4375 17.28125 313.011719 C 15.867188 309.589844 14.53125 306.136719 13.285156 302.648438 C 12.035156 299.160156 10.875 295.640625 9.800781 292.097656 C 8.722656 288.550781 7.734375 284.984375 6.835938 281.390625 C 5.9375 277.796875 5.125 274.183594 4.402344 270.550781 C 3.679688 266.914062 3.046875 263.265625 2.503906 259.601562 C 1.957031 255.9375 1.503906 252.261719 1.140625 248.574219 C 0.777344 244.886719 0.507812 241.195312 0.324219 237.496094 C 0.144531 233.792969 0.0507812 230.09375 0.0507812 226.386719 C 0.0507812 222.683594 0.144531 218.980469 0.324219 215.28125 C 0.507812 211.582031 0.777344 207.886719 1.140625 204.199219 C 1.503906 200.511719 1.957031 196.839844 2.503906 193.171875 C 3.046875 189.507812 3.679688 185.859375 4.402344 182.226562 C 5.125 178.59375 5.9375 174.980469 6.835938 171.386719 C 7.734375 167.792969 8.722656 164.222656 9.800781 160.679688 C 10.875 157.132812 12.035156 153.617188 13.285156 150.128906 C 14.53125 146.640625 15.867188 143.183594 17.28125 139.761719 C 18.699219 136.339844 20.203125 132.953125 21.785156 129.605469 C 23.371094 126.257812 25.035156 122.949219 26.78125 119.679688 C 28.527344 116.414062 30.351562 113.191406 32.257812 110.015625 C 34.160156 106.835938 36.144531 103.707031 38.199219 100.628906 C 40.257812 97.546875 42.390625 94.519531 44.597656 91.542969 C 46.804688 88.566406 49.082031 85.648438 51.433594 82.785156 C 53.785156 79.921875 56.203125 77.117188 58.691406 74.371094 C 61.179688 71.628906 63.734375 68.945312 66.351562 66.324219 C 68.972656 63.707031 71.652344 61.152344 74.398438 58.664062 C 77.144531 56.175781 79.949219 53.757812 82.8125 51.40625 C 85.675781 49.058594 88.59375 46.777344 91.570312 44.570312 C 94.546875 42.363281 97.574219 40.230469 100.65625 38.175781 C 103.734375 36.117188 106.863281 34.132812 110.042969 32.230469 C 113.21875 30.324219 116.441406 28.5 119.707031 26.753906 C 122.976562 25.007812 126.285156 23.34375 129.632812 21.757812 C 132.980469 20.175781 136.367188 18.671875 139.789062 17.257812 C 143.210938 15.839844 146.667969 14.503906 150.15625 13.257812 C 153.644531 12.007812 157.160156 10.847656 160.707031 9.773438 C 164.25 8.695312 167.820312 7.710938 171.414062 6.808594 C 175.007812 5.910156 178.621094 5.097656 182.253906 4.375 C 185.886719 3.652344 189.535156 3.019531 193.199219 2.476562 C 196.863281 1.929688 200.539062 1.476562 204.226562 1.113281 C 207.914062 0.753906 211.609375 0.480469 215.308594 0.296875 C 219.007812 0.117188 222.710938 0.0234375 226.414062 0.0234375 C 230.121094 0.0234375 233.820312 0.117188 237.523438 0.296875 C 241.222656 0.480469 244.914062 0.753906 248.601562 1.113281 C 252.289062 1.476562 255.964844 1.929688 259.628906 2.476562 C 263.292969 3.019531 266.941406 3.652344 270.574219 4.375 C 274.210938 5.097656 277.824219 5.910156 281.417969 6.808594 C 285.011719 7.710938 288.578125 8.695312 292.125 9.773438 C 295.667969 10.847656 299.1875 12.007812 302.675781 13.257812 C 306.160156 14.503906 309.617188 15.839844 313.039062 17.257812 C 316.460938 18.671875 319.847656 20.175781 323.195312 21.757812 C 326.546875 23.34375 329.855469 25.007812 333.121094 26.753906 C 336.386719 28.5 339.609375 30.324219 342.789062 32.230469 C 345.964844 34.132812 349.09375 36.117188 352.175781 38.175781 C 355.253906 40.230469 358.285156 42.363281 361.257812 44.570312 C 364.234375 46.777344 367.152344 49.058594 370.019531 51.40625 C 372.882812 53.757812 375.6875 56.175781 378.429688 58.664062 C 381.175781 61.152344 383.859375 63.707031 386.476562 66.324219 C 389.097656 68.945312 391.652344 71.628906 394.136719 74.371094 C 396.625 77.117188 399.046875 79.921875 401.394531 82.785156 C 403.746094 85.648438 406.023438 88.566406 408.230469 91.542969 C 410.4375 94.519531 412.570312 97.546875 414.628906 100.628906 C 416.6875 103.707031 418.667969 106.835938 420.574219 110.015625 C 422.476562 113.191406 424.300781 116.414062 426.050781 119.679688 C 427.796875 122.949219 429.460938 126.257812 431.042969 129.605469 C 432.628906 132.953125 434.128906 136.339844 435.546875 139.761719 C 436.964844 143.183594 438.296875 146.640625 439.546875 150.128906 C 440.792969 153.617188 441.953125 157.132812 443.03125 160.679688 C 444.105469 164.222656 445.09375 167.792969 445.992188 171.386719 C 446.894531 174.980469 447.707031 178.59375 448.429688 182.226562 C 449.152344 185.859375 449.785156 189.507812 450.328125 193.171875 C 450.871094 196.839844 451.324219 200.511719 451.6875 204.199219 C 452.050781 207.886719 452.324219 211.582031 452.503906 215.28125 C 452.6875 218.980469 452.777344 222.683594 452.777344 226.386719 Z M 452.777344 226.386719 " fill-opacity="1" fill-rule="nonzero"/></g><path fill="#d9ef69" d="M 424.078125 226.386719 C 424.078125 228.867188 424.027344 231.320312 423.941406 233.777344 C 420.050781 339.519531 333.101562 424.050781 226.425781 424.050781 C 119.753906 424.050781 32.789062 339.519531 28.902344 233.777344 C 28.8125 231.320312 28.761719 228.867188 28.761719 226.386719 C 28.761719 117.234375 117.261719 28.734375 226.425781 28.734375 C 335.59375 28.734375 424.078125 117.234375 424.078125 226.386719 Z M 424.078125 226.386719 " fill-opacity="1" fill-rule="nonzero"/><path fill="#90d747" d="M 423.941406 233.777344 C 420.050781 339.519531 333.101562 424.050781 226.425781 424.050781 C 119.753906 424.050781 32.789062 339.519531 28.902344 233.777344 C 32.777344 128.035156 119.726562 43.5 226.425781 43.5 C 333.125 43.5 420.0625 128.035156 423.941406 233.777344 Z M 423.941406 233.777344 " fill-opacity="1" fill-rule="nonzero"/><path fill="#f5ffc1" d="M 220.296875 276.722656 C 214.796875 276.722656 209.308594 274.734375 204.992188 270.730469 L 170.238281 238.558594 C 166.765625 235.335938 166.550781 229.914062 169.773438 226.425781 C 172.996094 222.9375 178.421875 222.726562 181.90625 225.960938 L 216.648438 258.132812 C 218.710938 260.046875 221.945312 260.019531 224.011719 258.070312 L 304.933594 180.570312 C 308.34375 177.300781 313.792969 177.425781 317.066406 180.835938 C 320.339844 184.257812 320.226562 189.683594 316.800781 192.96875 L 235.878906 270.46875 C 231.539062 274.621094 225.910156 276.710938 220.285156 276.710938 Z M 220.296875 276.722656 " fill-opacity="1" fill-rule="nonzero"/></svg>