<svg xmlns="http://www.w3.org/2000/svg" xmlns:xlink="http://www.w3.org/1999/xlink" width="1920" zoomAndPan="magnify" viewBox="0 0 1440 809.999993" height="1080" preserveAspectRatio="xMidYMid meet" version="1.0"><defs><clipPath id="81ed2346a6"><path d="M 136.472656 639.105469 L 1303.710938 639.105469 L 1303.710938 810 L 136.472656 810 Z M 136.472656 639.105469 " clip-rule="nonzero"/></clipPath></defs><path fill="#59bfed" d="M 633.269531 353.285156 L 633.269531 356.65625 L 711.308594 356.65625 L 711.308594 255.558594 C 667.261719 262.152344 633.269531 303.324219 633.269531 353.285156 " fill-opacity="1" fill-rule="nonzero"/><path fill="#59bfed" d="M 735.945312 255.558594 L 735.945312 356.65625 L 813.992188 356.65625 L 813.992188 353.285156 C 813.992188 303.324219 779.992188 262.152344 735.945312 255.558594 " fill-opacity="1" fill-rule="nonzero"/><path fill="#59bfed" d="M 633.269531 463.246094 L 711.308594 463.246094 L 711.308594 383.574219 L 633.269531 383.574219 L 633.269531 463.246094 " fill-opacity="1" fill-rule="nonzero"/><path fill="#59bfed" d="M 735.945312 463.246094 L 813.992188 463.246094 L 813.992188 383.574219 L 735.945312 383.574219 L 735.945312 463.246094 " fill-opacity="1" fill-rule="nonzero"/><path fill="#51ade5" d="M 723.644531 0 L 318.3125 308.703125 L 318.3125 390.402344 L 377.574219 351.621094 L 395.832031 489.808594 C 408.910156 505.652344 433 501.746094 447.6875 515.558594 L 447.691406 306.109375 L 723.632812 98.726562 L 999.574219 306.109375 L 999.566406 515.558594 C 1014.273438 501.746094 1041.757812 505.652344 1054.847656 489.808594 L 1074.679688 351.105469 L 1128.949219 390.402344 L 1128.949219 308.703125 L 723.644531 0 " fill-opacity="1" fill-rule="nonzero"/><path fill="#4d97d2" d="M 720.09375 695.992188 C 724.140625 692.273438 729.953125 687.121094 737.410156 680.976562 C 786.894531 640.160156 908.839844 555.4375 1069.195312 553.929688 L 1048.019531 530.574219 C 886.304688 538.617188 766.855469 625.335938 720.09375 665.332031 C 673.332031 625.335938 553.878906 538.617188 392.15625 530.574219 L 370.992188 553.929688 C 531.339844 555.4375 653.292969 640.160156 702.773438 680.976562 C 710.222656 687.121094 716.039062 692.273438 720.09375 695.992188 " fill-opacity="1" fill-rule="nonzero"/><path fill="#3a72c1" d="M 698.546875 734.703125 C 707.683594 740.644531 714.910156 745.695312 720.09375 749.445312 C 725.257812 745.695312 732.5 740.644531 741.632812 734.703125 C 809.328125 690.625 964.972656 587.671875 1201.78125 606.191406 L 1172.835938 578.585938 C 1038.652344 573.1875 930.941406 604.777344 860.90625 634.507812 C 802.273438 659.402344 749.226562 700.621094 720.09375 719.902344 C 690.949219 700.621094 637.917969 659.402344 579.28125 634.507812 C 509.242188 604.777344 401.519531 573.1875 267.351562 578.585938 L 238.40625 606.191406 C 475.214844 587.671875 630.863281 690.625 698.546875 734.703125 " fill-opacity="1" fill-rule="nonzero"/><g clip-path="url(#81ed2346a6)"><path fill="#2f6e9f" d="M 1268.191406 644.421875 C 1146.152344 632.105469 926.15625 634.753906 739.960938 770.558594 L 700.226562 770.558594 C 514.027344 634.753906 294.035156 632.105469 171.996094 644.421875 L 136.472656 672.996094 L 669.738281 794.9375 L 672.453125 810 L 767.734375 810 L 770.449219 794.9375 L 1303.710938 672.996094 L 1268.191406 644.421875 " fill-opacity="1" fill-rule="nonzero"/></g></svg>